<mxfile host="app.diagrams.net" modified="2023-12-03T06:03:48.625Z" agent="Mozilla/5.0 (Macintosh; Intel Mac OS X 10_15_7) AppleWebKit/537.36 (KHTML, like Gecko) Chrome/119.0.0.0 Safari/537.36" etag="7PPBxD5DZgzcLetvkhDp" version="22.1.5" type="github">
  <diagram name="Page-1" id="aRuCgZtnoSvNG3mgIwN0">
    <mxGraphModel dx="1468" dy="932" grid="1" gridSize="10" guides="1" tooltips="1" connect="1" arrows="1" fold="1" page="1" pageScale="1" pageWidth="827" pageHeight="1169" math="0" shadow="0">
      <root>
        <mxCell id="0" />
        <mxCell id="1" parent="0" />
        <mxCell id="OuUVu_Vu5AfZQE2cV6rP-22" value="Public subnet" style="points=[[0,0],[0.25,0],[0.5,0],[0.75,0],[1,0],[1,0.25],[1,0.5],[1,0.75],[1,1],[0.75,1],[0.5,1],[0.25,1],[0,1],[0,0.75],[0,0.5],[0,0.25]];outlineConnect=0;gradientColor=none;html=1;whiteSpace=wrap;fontSize=12;fontStyle=0;container=1;pointerEvents=0;collapsible=0;recursiveResize=0;shape=mxgraph.aws4.group;grIcon=mxgraph.aws4.group_security_group;grStroke=0;strokeColor=#7AA116;fillColor=#F2F6E8;verticalAlign=top;align=left;spacingLeft=30;fontColor=#248814;dashed=0;" parent="1" vertex="1">
          <mxGeometry x="240" y="560" width="120" height="118" as="geometry" />
        </mxCell>
        <mxCell id="OuUVu_Vu5AfZQE2cV6rP-30" value="" style="outlineConnect=0;dashed=0;verticalLabelPosition=bottom;verticalAlign=top;align=center;html=1;shape=mxgraph.aws3.ec2;fillColor=#F58534;gradientColor=none;" parent="OuUVu_Vu5AfZQE2cV6rP-22" vertex="1">
          <mxGeometry x="21.75" y="20" width="66.5" height="60" as="geometry" />
        </mxCell>
        <mxCell id="OuUVu_Vu5AfZQE2cV6rP-23" value="Public subnet" style="points=[[0,0],[0.25,0],[0.5,0],[0.75,0],[1,0],[1,0.25],[1,0.5],[1,0.75],[1,1],[0.75,1],[0.5,1],[0.25,1],[0,1],[0,0.75],[0,0.5],[0,0.25]];outlineConnect=0;gradientColor=none;html=1;whiteSpace=wrap;fontSize=12;fontStyle=0;container=1;pointerEvents=0;collapsible=0;recursiveResize=0;shape=mxgraph.aws4.group;grIcon=mxgraph.aws4.group_security_group;grStroke=0;strokeColor=#7AA116;fillColor=#F2F6E8;verticalAlign=top;align=left;spacingLeft=30;fontColor=#248814;dashed=0;" parent="1" vertex="1">
          <mxGeometry x="520" y="560" width="120" height="118" as="geometry" />
        </mxCell>
        <mxCell id="OuUVu_Vu5AfZQE2cV6rP-33" value="" style="outlineConnect=0;dashed=0;verticalLabelPosition=bottom;verticalAlign=top;align=center;html=1;shape=mxgraph.aws3.ec2;fillColor=#F58534;gradientColor=none;" parent="OuUVu_Vu5AfZQE2cV6rP-23" vertex="1">
          <mxGeometry x="21.75" y="20" width="66.5" height="60" as="geometry" />
        </mxCell>
        <mxCell id="OuUVu_Vu5AfZQE2cV6rP-24" value="Private subnet" style="points=[[0,0],[0.25,0],[0.5,0],[0.75,0],[1,0],[1,0.25],[1,0.5],[1,0.75],[1,1],[0.75,1],[0.5,1],[0.25,1],[0,1],[0,0.75],[0,0.5],[0,0.25]];outlineConnect=0;gradientColor=none;html=1;whiteSpace=wrap;fontSize=12;fontStyle=0;container=1;pointerEvents=0;collapsible=0;recursiveResize=0;shape=mxgraph.aws4.group;grIcon=mxgraph.aws4.group_security_group;grStroke=0;strokeColor=#00A4A6;fillColor=#E6F6F7;verticalAlign=top;align=left;spacingLeft=30;fontColor=#147EBA;dashed=0;" parent="1" vertex="1">
          <mxGeometry x="240" y="800" width="120" height="280" as="geometry" />
        </mxCell>
        <mxCell id="OuUVu_Vu5AfZQE2cV6rP-31" value="" style="outlineConnect=0;dashed=0;verticalLabelPosition=bottom;verticalAlign=top;align=center;html=1;shape=mxgraph.aws3.ec2;fillColor=#F58534;gradientColor=none;" parent="OuUVu_Vu5AfZQE2cV6rP-24" vertex="1">
          <mxGeometry x="21.75" y="35" width="66.5" height="60" as="geometry" />
        </mxCell>
        <mxCell id="OuUVu_Vu5AfZQE2cV6rP-32" value="" style="outlineConnect=0;dashed=0;verticalLabelPosition=bottom;verticalAlign=top;align=center;html=1;shape=mxgraph.aws3.ec2;fillColor=#F58534;gradientColor=none;" parent="OuUVu_Vu5AfZQE2cV6rP-24" vertex="1">
          <mxGeometry x="21.75" y="180" width="66.5" height="60" as="geometry" />
        </mxCell>
        <mxCell id="OuUVu_Vu5AfZQE2cV6rP-40" value="app-tire" style="text;html=1;strokeColor=none;fillColor=none;align=center;verticalAlign=middle;whiteSpace=wrap;rounded=0;" parent="OuUVu_Vu5AfZQE2cV6rP-24" vertex="1">
          <mxGeometry x="28.25" y="95" width="60" height="30" as="geometry" />
        </mxCell>
        <mxCell id="OuUVu_Vu5AfZQE2cV6rP-42" value="DB-tire" style="text;html=1;strokeColor=none;fillColor=none;align=center;verticalAlign=middle;whiteSpace=wrap;rounded=0;" parent="OuUVu_Vu5AfZQE2cV6rP-24" vertex="1">
          <mxGeometry x="25" y="240" width="60" height="30" as="geometry" />
        </mxCell>
        <mxCell id="OuUVu_Vu5AfZQE2cV6rP-25" value="Private subnet" style="points=[[0,0],[0.25,0],[0.5,0],[0.75,0],[1,0],[1,0.25],[1,0.5],[1,0.75],[1,1],[0.75,1],[0.5,1],[0.25,1],[0,1],[0,0.75],[0,0.5],[0,0.25]];outlineConnect=0;gradientColor=none;html=1;whiteSpace=wrap;fontSize=12;fontStyle=0;container=1;pointerEvents=0;collapsible=0;recursiveResize=0;shape=mxgraph.aws4.group;grIcon=mxgraph.aws4.group_security_group;grStroke=0;strokeColor=#00A4A6;fillColor=#E6F6F7;verticalAlign=top;align=left;spacingLeft=30;fontColor=#147EBA;dashed=0;" parent="1" vertex="1">
          <mxGeometry x="520" y="800" width="120" height="280" as="geometry" />
        </mxCell>
        <mxCell id="OuUVu_Vu5AfZQE2cV6rP-34" value="" style="outlineConnect=0;dashed=0;verticalLabelPosition=bottom;verticalAlign=top;align=center;html=1;shape=mxgraph.aws3.ec2;fillColor=#F58534;gradientColor=none;" parent="OuUVu_Vu5AfZQE2cV6rP-25" vertex="1">
          <mxGeometry x="21.75" y="35" width="66.5" height="60" as="geometry" />
        </mxCell>
        <mxCell id="OuUVu_Vu5AfZQE2cV6rP-39" value="app-tire" style="text;html=1;strokeColor=none;fillColor=none;align=center;verticalAlign=middle;whiteSpace=wrap;rounded=0;" parent="OuUVu_Vu5AfZQE2cV6rP-25" vertex="1">
          <mxGeometry x="25" y="95" width="60" height="30" as="geometry" />
        </mxCell>
        <mxCell id="OuUVu_Vu5AfZQE2cV6rP-55" style="edgeStyle=orthogonalEdgeStyle;rounded=0;orthogonalLoop=1;jettySize=auto;html=1;entryX=1;entryY=0.5;entryDx=0;entryDy=0;" parent="1" source="OuUVu_Vu5AfZQE2cV6rP-26" target="OuUVu_Vu5AfZQE2cV6rP-22" edge="1">
          <mxGeometry relative="1" as="geometry" />
        </mxCell>
        <mxCell id="OuUVu_Vu5AfZQE2cV6rP-56" style="edgeStyle=orthogonalEdgeStyle;rounded=0;orthogonalLoop=1;jettySize=auto;html=1;entryX=0;entryY=0.5;entryDx=0;entryDy=0;" parent="1" source="OuUVu_Vu5AfZQE2cV6rP-26" target="OuUVu_Vu5AfZQE2cV6rP-23" edge="1">
          <mxGeometry relative="1" as="geometry" />
        </mxCell>
        <mxCell id="OuUVu_Vu5AfZQE2cV6rP-26" value="" style="outlineConnect=0;dashed=0;verticalLabelPosition=bottom;verticalAlign=top;align=center;html=1;shape=mxgraph.aws3.route_table;fillColor=#F58536;gradientColor=none;" parent="1" vertex="1">
          <mxGeometry x="399.75" y="480" width="80" height="69" as="geometry" />
        </mxCell>
        <mxCell id="OuUVu_Vu5AfZQE2cV6rP-53" style="edgeStyle=orthogonalEdgeStyle;rounded=0;orthogonalLoop=1;jettySize=auto;html=1;entryX=1;entryY=0.25;entryDx=0;entryDy=0;" parent="1" source="OuUVu_Vu5AfZQE2cV6rP-27" target="OuUVu_Vu5AfZQE2cV6rP-24" edge="1">
          <mxGeometry relative="1" as="geometry" />
        </mxCell>
        <mxCell id="OuUVu_Vu5AfZQE2cV6rP-54" style="edgeStyle=orthogonalEdgeStyle;rounded=0;orthogonalLoop=1;jettySize=auto;html=1;entryX=0;entryY=0.25;entryDx=0;entryDy=0;" parent="1" source="OuUVu_Vu5AfZQE2cV6rP-27" target="OuUVu_Vu5AfZQE2cV6rP-25" edge="1">
          <mxGeometry relative="1" as="geometry" />
        </mxCell>
        <mxCell id="OuUVu_Vu5AfZQE2cV6rP-27" value="" style="sketch=0;outlineConnect=0;fontColor=#232F3E;gradientColor=none;fillColor=#8C4FFF;strokeColor=none;dashed=0;verticalLabelPosition=bottom;verticalAlign=top;align=center;html=1;fontSize=12;fontStyle=0;aspect=fixed;pointerEvents=1;shape=mxgraph.aws4.route_table;" parent="1" vertex="1">
          <mxGeometry x="401.5" y="920" width="78" height="76" as="geometry" />
        </mxCell>
        <mxCell id="OuUVu_Vu5AfZQE2cV6rP-28" value="" style="outlineConnect=0;dashed=0;verticalLabelPosition=bottom;verticalAlign=top;align=center;html=1;shape=mxgraph.aws3.internet_gateway;fillColor=#F58534;gradientColor=none;" parent="1" vertex="1">
          <mxGeometry x="403.5" y="140" width="76.5" height="70" as="geometry" />
        </mxCell>
        <mxCell id="OuUVu_Vu5AfZQE2cV6rP-29" value="" style="sketch=0;outlineConnect=0;fontColor=#232F3E;gradientColor=none;fillColor=#E7157B;strokeColor=none;dashed=0;verticalLabelPosition=bottom;verticalAlign=top;align=center;html=1;fontSize=12;fontStyle=0;aspect=fixed;pointerEvents=1;shape=mxgraph.aws4.endpoint;" parent="1" vertex="1">
          <mxGeometry x="398" y="240" width="80" height="80" as="geometry" />
        </mxCell>
        <mxCell id="OuUVu_Vu5AfZQE2cV6rP-48" style="edgeStyle=orthogonalEdgeStyle;rounded=0;orthogonalLoop=1;jettySize=auto;html=1;entryX=0.5;entryY=0;entryDx=0;entryDy=0;" parent="1" source="OuUVu_Vu5AfZQE2cV6rP-36" target="OuUVu_Vu5AfZQE2cV6rP-22" edge="1">
          <mxGeometry relative="1" as="geometry" />
        </mxCell>
        <mxCell id="OuUVu_Vu5AfZQE2cV6rP-49" style="edgeStyle=orthogonalEdgeStyle;rounded=0;orthogonalLoop=1;jettySize=auto;html=1;entryX=0.5;entryY=0;entryDx=0;entryDy=0;" parent="1" source="OuUVu_Vu5AfZQE2cV6rP-36" target="OuUVu_Vu5AfZQE2cV6rP-23" edge="1">
          <mxGeometry relative="1" as="geometry" />
        </mxCell>
        <mxCell id="OuUVu_Vu5AfZQE2cV6rP-36" value="" style="outlineConnect=0;dashed=0;verticalLabelPosition=bottom;verticalAlign=top;align=center;html=1;shape=mxgraph.aws3.application_load_balancer;fillColor=#F58534;gradientColor=none;" parent="1" vertex="1">
          <mxGeometry x="409" y="350" width="69" height="72" as="geometry" />
        </mxCell>
        <mxCell id="OuUVu_Vu5AfZQE2cV6rP-52" style="edgeStyle=orthogonalEdgeStyle;rounded=0;orthogonalLoop=1;jettySize=auto;html=1;entryX=0.5;entryY=0;entryDx=0;entryDy=0;" parent="1" source="OuUVu_Vu5AfZQE2cV6rP-37" target="OuUVu_Vu5AfZQE2cV6rP-24" edge="1">
          <mxGeometry relative="1" as="geometry" />
        </mxCell>
        <mxCell id="_Dg9AQlfLl--0kB6ONo2-3" style="edgeStyle=orthogonalEdgeStyle;rounded=0;orthogonalLoop=1;jettySize=auto;html=1;entryX=0.5;entryY=0;entryDx=0;entryDy=0;" edge="1" parent="1" source="OuUVu_Vu5AfZQE2cV6rP-37" target="OuUVu_Vu5AfZQE2cV6rP-25">
          <mxGeometry relative="1" as="geometry" />
        </mxCell>
        <mxCell id="_Dg9AQlfLl--0kB6ONo2-4" style="edgeStyle=orthogonalEdgeStyle;rounded=0;orthogonalLoop=1;jettySize=auto;html=1;" edge="1" parent="1" source="OuUVu_Vu5AfZQE2cV6rP-37" target="OuUVu_Vu5AfZQE2cV6rP-29">
          <mxGeometry relative="1" as="geometry">
            <Array as="points">
              <mxPoint x="440" y="710" />
              <mxPoint x="150" y="710" />
              <mxPoint x="150" y="280" />
            </Array>
          </mxGeometry>
        </mxCell>
        <mxCell id="OuUVu_Vu5AfZQE2cV6rP-37" value="" style="sketch=0;outlineConnect=0;fontColor=#232F3E;gradientColor=none;fillColor=#8C4FFF;strokeColor=none;dashed=0;verticalLabelPosition=bottom;verticalAlign=top;align=center;html=1;fontSize=12;fontStyle=0;aspect=fixed;pointerEvents=1;shape=mxgraph.aws4.application_load_balancer;" parent="1" vertex="1">
          <mxGeometry x="397.25" y="730" width="85" height="85" as="geometry" />
        </mxCell>
        <mxCell id="_Dg9AQlfLl--0kB6ONo2-2" value="" style="outlineConnect=0;dashed=0;verticalLabelPosition=bottom;verticalAlign=top;align=center;html=1;shape=mxgraph.aws3.route_53;fillColor=#F58536;gradientColor=none;" vertex="1" parent="1">
          <mxGeometry x="60" y="747.25" width="70.5" height="85.5" as="geometry" />
        </mxCell>
      </root>
    </mxGraphModel>
  </diagram>
</mxfile>
